<mxfile host="app.diagrams.net" modified="2024-06-26T08:15:25.802Z" agent="Mozilla/5.0 (Windows NT 10.0; Win64; x64) AppleWebKit/537.36 (KHTML, like Gecko) Chrome/126.0.0.0 Safari/537.36 Edg/126.0.0.0" etag="WVuMtEaT_GgOeF93LLBv" version="24.6.2" type="github">
  <diagram name="第 1 页" id="FwQGh0M6uO-ZrZ7qa3tF">
    <mxGraphModel dx="1213" dy="746" grid="1" gridSize="10" guides="1" tooltips="1" connect="1" arrows="1" fold="1" page="1" pageScale="1" pageWidth="827" pageHeight="1169" math="0" shadow="0">
      <root>
        <mxCell id="0" />
        <mxCell id="1" parent="0" />
        <mxCell id="5wqm_s9_9scMqihxWxxf-1" value="" style="rounded=0;whiteSpace=wrap;html=1;fillColor=#d5e8d4;strokeColor=#82b366;" vertex="1" parent="1">
          <mxGeometry x="160" y="280" width="200" height="200" as="geometry" />
        </mxCell>
        <mxCell id="5wqm_s9_9scMqihxWxxf-2" value="" style="rounded=0;whiteSpace=wrap;html=1;fillColor=#fff2cc;strokeColor=#d6b656;" vertex="1" parent="1">
          <mxGeometry x="360" y="280" width="240" height="200" as="geometry" />
        </mxCell>
        <mxCell id="5wqm_s9_9scMqihxWxxf-3" value="Cell1" style="text;html=1;align=center;verticalAlign=middle;resizable=0;points=[];autosize=1;strokeColor=none;fillColor=none;fontSize=20;" vertex="1" parent="1">
          <mxGeometry x="225" y="225" width="70" height="40" as="geometry" />
        </mxCell>
        <mxCell id="5wqm_s9_9scMqihxWxxf-4" value="Cell2" style="text;html=1;align=center;verticalAlign=middle;resizable=0;points=[];autosize=1;strokeColor=none;fillColor=none;fontSize=20;" vertex="1" parent="1">
          <mxGeometry x="445" y="225" width="70" height="40" as="geometry" />
        </mxCell>
      </root>
    </mxGraphModel>
  </diagram>
</mxfile>
